#N canvas 607 595 756 662 10;
#X obj 148 20 notein 13;
#X obj 147 196 r btn_buss;
#X obj 148 304 noteout 13;
#X msg 148 277 18;
#X obj 147 249 t b f;
#X obj 148 95 spigot, f 9;
#X obj 208 69 == 18;
#X obj 148 45 swap, f 9;
#X obj 148 122 > 0;
#X obj 148 149 s btn_buss;
#X obj 108 150 tgl 15 0 empty empty empty 17 7 0 10 -262144 -1 -1 0
1;
#X obj 147 222 * 127;
#X obj 318 200 r btn_buss;
#X floatatom 349 262 5 0 0 0 - - -, f 5;
#X obj 317 230 t f f;
#X obj 315 307 select 1;
#X obj 316 281 change 0;
#X obj 316 353 print l;
#X obj 497 395 print r;
#X connect 0 0 7 0;
#X connect 0 1 7 1;
#X connect 1 0 11 0;
#X connect 3 0 2 0;
#X connect 4 0 3 0;
#X connect 4 1 2 1;
#X connect 5 0 8 0;
#X connect 6 0 5 1;
#X connect 7 0 5 0;
#X connect 7 1 6 0;
#X connect 8 0 9 0;
#X connect 8 0 10 0;
#X connect 11 0 4 0;
#X connect 12 0 14 0;
#X connect 13 0 18 0;
#X connect 14 0 16 0;
#X connect 14 1 13 0;
#X connect 15 0 17 0;
#X connect 16 0 15 0;
