#N canvas 1065 121 911 890 10;
#X obj 70 63 inlet;
#X obj 235 69 inlet;
#X text 53 41 bang to sample;
#X text 214 43 phase at sample;
#X obj 151 123 float;
#X floatatom 152 149 5 0 0 0 - - -, f 5;
#X obj 209 121 float;
#X floatatom 213 148 5 0 0 0 - - -, f 5;
#X obj 183 19 r link_tempo;
#X obj 109 230 /, f 5;
#X obj 109 186 t b f;
#X msg 109 208 60;
#X obj 159 229 samplerate~;
#X obj 159 204 r resetbang;
#X obj 109 256 *, f 8;
#X floatatom 88 341 10 0 0 1 samples_per_beat - -, f 10;
#X obj 371 19 r link_quantum;
#X floatatom 312 334 5 0 0 1 offset_to_downbeat - -, f 5;
#X obj 78 389 symbol \$1;
#X obj 79 93 t b b b;
#X obj 188 473 outlet;
#X obj 189 442 pack s f f f f;
#X text 260 471 outputs a list of the buffer symbol \, tempo of the
buffer samples per beat of the buffer offset in the buffer to downbeat
offset to the end of the buffer;
#X obj 327 389 *;
#X obj 302 415 +;
#X obj 305 263 -;
#X obj 286 297 *;
#X obj 308 231 t b f;
#X connect 0 0 19 0;
#X connect 1 0 6 1;
#X connect 4 0 5 0;
#X connect 4 0 10 0;
#X connect 4 0 21 1;
#X connect 6 0 7 0;
#X connect 6 0 27 0;
#X connect 8 0 4 1;
#X connect 9 0 14 0;
#X connect 10 0 11 0;
#X connect 10 1 9 1;
#X connect 11 0 9 0;
#X connect 12 0 14 1;
#X connect 13 0 12 0;
#X connect 14 0 15 0;
#X connect 14 0 21 2;
#X connect 14 0 23 0;
#X connect 14 0 26 0;
#X connect 16 0 25 0;
#X connect 16 0 23 1;
#X connect 18 0 21 0;
#X connect 19 0 18 0;
#X connect 19 1 4 0;
#X connect 19 2 6 0;
#X connect 21 0 20 0;
#X connect 23 0 24 1;
#X connect 24 0 21 4;
#X connect 25 0 26 1;
#X connect 26 0 17 0;
#X connect 26 0 24 0;
#X connect 26 0 21 3;
#X connect 27 0 25 0;
#X connect 27 1 25 1;
