#N canvas 116 600 595 326 10;
#X obj 228 11 ctlin \$2 \$3;
#X obj 309 256 ctlout \$2 \$3;
#X obj 180 25 bng 15 250 50 0 empty empty empty 17 7 0 10 -262144 -1
-1;
#X obj 13 25 hsl 165 15 0 127 0 0 empty empty empty -2 -8 0 10 -262130
-1 -1 0 1;
#X msg 97 250 set \$1;
#X obj 99 93 s cc_\$1_rawin;
#X obj 98 121 r cc_\$1_rawout;
#X obj 370 74 r cc_\$1_disp;
#X obj 284 171 tgl 15 0 empty empty empty 17 7 0 10 -262144 -1 -1 1
1;
#X msg 401 123 0;
#X obj 308 47 r resetbang;
#X msg 308 69 1;
#X obj 370 99 t f b;
#X obj 213 160 change;
#X obj 232 196 spigot 1;
#X connect 0 0 2 0;
#X connect 0 0 5 0;
#X connect 0 0 13 0;
#X connect 3 0 5 0;
#X connect 4 0 3 0;
#X connect 6 0 13 0;
#X connect 7 0 12 0;
#X connect 8 0 14 1;
#X connect 9 0 8 0;
#X connect 10 0 11 0;
#X connect 10 0 13 0;
#X connect 11 0 8 0;
#X connect 12 0 1 0;
#X connect 12 1 9 0;
#X connect 13 0 4 0;
#X connect 13 0 14 0;
#X connect 14 0 1 0;
#X coords 0 -1 1 1 185 30 1 10 10;
