#N canvas 716 528 620 373 10;
#X obj 303 202 expr 127 * ($f1 - \$3) / (\$4 - \$3);
#X obj 267 95 expr ($f1 / 127) * (\$4 - \$3) + \$3;
#X obj 155 46 inlet;
#X obj 222 251 outlet;
#X obj 118 128 float \$2;
#X obj 57 67 r resetbang;
#X obj 155 95 route sane;
#X obj 222 173 float;
#X obj 168 69 r cc_\$1_set;
#X obj 239 227 s cc_\$1;
#X obj 267 68 r cc_\$1_rawin;
#X obj 303 228 s cc_\$1_rawout;
#X connect 0 0 11 0;
#X connect 1 0 7 0;
#X connect 2 0 6 0;
#X connect 4 0 7 0;
#X connect 5 0 4 0;
#X connect 6 0 4 0;
#X connect 6 1 7 0;
#X connect 7 0 3 0;
#X connect 7 0 9 0;
#X connect 7 0 0 0;
#X connect 8 0 6 0;
#X connect 10 0 1 0;
