#N canvas 1359 529 468 337 10;
#X obj 145 34 inlet;
#X obj 212 239 outlet;
#X obj 108 116 float \$2;
#X obj 47 55 r resetbang;
#X obj 145 83 route sane;
#X obj 212 161 float;
#X obj 158 57 r cc_\$1_set;
#X obj 229 215 s cc_\$1;
#X obj 257 56 r cc_\$1_rawin;
#X obj 293 216 s cc_\$1_rawout;
#X connect 0 0 4 0;
#X connect 2 0 5 0;
#X connect 3 0 2 0;
#X connect 4 0 2 0;
#X connect 4 1 5 0;
#X connect 5 0 1 0;
#X connect 5 0 7 0;
#X connect 5 0 9 0;
#X connect 6 0 4 0;
#X connect 8 0 5 0;
#X coords 0 337 1 336 85 30 0;
