#N canvas 837 941 450 300 10;
#X obj 106 59 inlet~;
#X obj 106 118 outlet~;
#X obj 247 60 inlet~;
#X obj 247 119 outlet~;
#X obj 126 90 send~ mix_\$1_l;
#X obj 267 91 send~ mix_\$1_r;
#X connect 0 0 1 0;
#X connect 0 0 4 0;
#X connect 2 0 3 0;
#X connect 2 0 5 0;
#X coords 0 -1 1 1 185 20 1 10 10;
