#N canvas 1066 662 728 735 10;
#X obj 564 315 *~;
#X obj 198 315 *~;
#X obj 194 384 outlet~;
#X obj 564 390 outlet~;
#X obj 363 196 pack 0 50;
#X obj 363 222 line~;
#X obj 365 41 ctl mix_\$1 0;
#X obj 363 126 / 100;
#X obj 362 151 t f f;
#X obj 363 174 *;
#X obj 102 54 vu 15 120 empty empty -1 -8 0 10 -66577 -1 0 0;
#X obj 101 180 tgl 15 0 empty empty pre 19 7 0 10 -262144 -1 -1 0 1
;
#X obj 120 54 vu 15 120 empty empty -1 -8 0 10 -66577 -1 0 0;
#X obj 144 54 vsl 15 108 0 127 0 0 empty empty empty 0 -9 0 10 -262144
-1 -1 0 1;
#X obj 145 168 tgl 15 0 empty empty empty 17 7 0 10 -262144 -1 -1 0
1;
#X obj 363 71 expr ($f1 * (1 - $f2)) + ((127 - $f1) * $f2), f 15;
#X obj 41 517 max;
#X floatatom 101 34 5 0 0 0 - - -, f 5;
#N canvas 1540 875 450 300 calc-ui 0;
#X obj 123 40 inlet~;
#X obj 174 39 inlet~;
#X obj 225 39 inlet~;
#X obj 276 38 inlet~;
#X obj 66 42 inlet;
#X obj 67 212 outlet;
#X obj 251 210 outlet;
#X obj 66 101 expr~ ($v1 * $f3) + ($v2 * (1 - $f3)), f 13;
#X obj 250 102 expr~ ($v1 * $f3) + ($v2 * (1 - $f3)), f 13;
#X obj 248 156 env~ 2048;
#X obj 66 158 env~ 2048;
#X obj 67 184 - 100;
#X obj 250 185 - 100;
#X obj 355 80 switch~;
#X obj 355 54 r doui;
#X connect 0 0 7 0;
#X connect 1 0 7 1;
#X connect 2 0 8 0;
#X connect 3 0 8 1;
#X connect 4 0 7 2;
#X connect 4 0 8 2;
#X connect 7 0 10 0;
#X connect 8 0 9 0;
#X connect 9 0 12 0;
#X connect 10 0 11 0;
#X connect 11 0 5 0;
#X connect 12 0 6 0;
#X connect 14 0 13 0;
#X restore 99 464 pd calc-ui;
#X obj 214 356 throw~ bus_master_l;
#X obj 583 354 throw~ bus_master_r;
#X obj 200 251 +~ 0;
#X obj 563 253 +~ 0;
#X obj 199 195 inlet~;
#X obj 222 221 receive~ mix_\$1_l;
#X obj 563 193 inlet~;
#X obj 586 219 receive~ mix_\$1_r;
#X connect 0 0 3 0;
#X connect 0 0 18 4;
#X connect 0 0 20 0;
#X connect 1 0 2 0;
#X connect 1 0 18 2;
#X connect 1 0 19 0;
#X connect 4 0 5 0;
#X connect 5 0 0 1;
#X connect 5 0 1 1;
#X connect 6 0 15 0;
#X connect 6 1 13 0;
#X connect 7 0 8 0;
#X connect 8 0 9 0;
#X connect 8 0 9 1;
#X connect 9 0 4 0;
#X connect 11 0 18 0;
#X connect 13 0 6 0;
#X connect 14 0 15 1;
#X connect 15 0 7 0;
#X connect 16 0 17 0;
#X connect 18 0 16 0;
#X connect 18 0 10 0;
#X connect 18 1 16 1;
#X connect 18 1 12 0;
#X connect 21 0 1 0;
#X connect 21 0 18 1;
#X connect 22 0 0 0;
#X connect 22 0 18 3;
#X connect 23 0 21 0;
#X connect 24 0 21 0;
#X connect 25 0 22 0;
#X connect 26 0 22 0;
#X coords 0 -1 1 1 65 185 1 100 10;
