#N canvas 833 543 519 474 10;
#X obj 196 189 r ctl_\$1;
#X obj 196 271 outlet;
#X obj 258 271 outlet;
#X obj 196 164 s ctl_\$1;
#X msg 258 246 set \$1;
#X obj 196 130 expr 127 * ($f1 - \$3) / (\$4 - \$3);
#X obj 196 213 expr ($f1 / 127) * (\$4 - \$3) + \$3;
#X obj 64 86 change;
#X obj 64 61 r ctl_\$1_range;
#X obj 62 297 s ctl_\$1_range;
#X obj 290 34 inlet;
#X obj 196 86 float \$2;
#X obj 196 34 r resetbang;
#X obj 290 57 route sane;
#X connect 0 0 6 0;
#X connect 4 0 2 0;
#X connect 4 0 7 0;
#X connect 5 0 3 0;
#X connect 6 0 4 0;
#X connect 6 0 1 0;
#X connect 6 0 9 0;
#X connect 7 0 5 0;
#X connect 8 0 7 0;
#X connect 10 0 13 0;
#X connect 11 0 5 0;
#X connect 12 0 11 0;
#X connect 13 0 11 0;
#X connect 13 1 5 0;
