#N canvas 204 537 552 474 10;
#X obj 197 168 r ctl_\$1;
#X obj 222 51 inlet;
#X obj 198 272 outlet;
#X obj 258 271 outlet;
#X obj 197 143 s ctl_\$1;
#X msg 258 246 set \$1;
#X obj 165 104 float \$2;
#X obj 128 51 r resetbang;
#X obj 222 74 route sane;
#X connect 0 0 2 0;
#X connect 0 0 5 0;
#X connect 1 0 8 0;
#X connect 5 0 3 0;
#X connect 6 0 4 0;
#X connect 7 0 6 0;
#X connect 8 0 6 0;
#X connect 8 1 4 0;
#X coords 0 474 1 473 85 30 0;
