#N canvas 691 70 866 643 10;
#N canvas 1392 157 450 300 config 0;
#X obj 41 86 loadbang;
#X obj 22 109 s resetbang;
#X obj 16 15 bng 15 250 50 0 empty empty reset_bang! 17 7 0 10 -262144
-1 -258113;
#X obj 231 223 s port-dt;
#X msg 231 199 2;
#X obj 152 223 s port-uc;
#X msg 153 200 1;
#X obj 220 111 r resetbang;
#X obj 115 87 s doui;
#X obj 16 36 tgl 15 0 empty empty do_ui 17 7 0 10 -262144 -1 -1 0 1
;
#X connect 0 0 1 0;
#X connect 2 0 1 0;
#X connect 4 0 3 0;
#X connect 6 0 5 0;
#X connect 7 0 6 0;
#X connect 7 0 4 0;
#X connect 9 0 8 0;
#X coords 0 -1 1 1 185 60 2 10 10;
#X restore 16 12 pd config;
#N canvas 281 575 700 511 link-sync 0;
#X msg 34 117 connect 1;
#X obj 40 481 midiout;
#X obj 133 456 r port-dt;
#X floatatom 37 50 5 0 0 0 - - -, f 5;
#X text 31 32 tempo;
#X obj 34 142 abl_link~ 24 0 4 120;
#X obj 34 92 r resetbang;
#X floatatom 90 50 5 0 0 0 - - -, f 5;
#X obj 223 17 r #abl_link_num_peers;
#X text 86 32 link'd;
#X obj 375 90 ctlin 96 13;
#X obj 397 150 ctlin 97 13;
#X obj 397 204 * 0.1;
#X obj 377 234 +;
#X msg 159 116 tempo \$1;
#X obj 375 115 expr if($f1 < 64 \, $f1 \, $f1 - 128);
#X obj 397 175 expr if($f1 < 64 \, $f1 \, $f1 - 128);
#X obj 179 258 * 10;
#X obj 179 346 bendout 13;
#X obj 224 48 ctlout 102 13;
#X msg 196 224 set \$1;
#X obj 70 224 s link_phase;
#X obj 68 249 s link_tempo;
#X msg 137 436 248;
#X obj 179 280 + 0.5;
#X obj 178 302 int;
#X obj 179 325 - 8192;
#X obj 304 336 ctl sync-play;
#X obj 173 50 tgl 15 0 empty empty empty 17 7 0 10 -262144 -1 -1 0
1;
#X obj 304 368 select 0 1;
#X msg 370 397 1;
#X obj 34 388 select -1;
#X msg 54 440 250 \, 248;
#X msg 322 397 0;
#X msg 277 394 -1;
#X obj 34 409 t b b;
#X msg 304 305 0;
#X text 163 30 play;
#X connect 0 0 5 0;
#X connect 2 0 1 1;
#X connect 3 0 14 0;
#X connect 5 0 31 0;
#X connect 5 1 21 0;
#X connect 5 3 13 1;
#X connect 5 3 17 0;
#X connect 5 3 20 0;
#X connect 5 3 22 0;
#X connect 6 0 0 0;
#X connect 8 0 7 0;
#X connect 8 0 19 0;
#X connect 10 0 15 0;
#X connect 11 0 16 0;
#X connect 12 0 13 0;
#X connect 13 0 14 0;
#X connect 14 0 5 0;
#X connect 15 0 13 0;
#X connect 16 0 12 0;
#X connect 17 0 24 0;
#X connect 20 0 3 0;
#X connect 23 0 1 0;
#X connect 24 0 25 0;
#X connect 25 0 26 0;
#X connect 26 0 18 0;
#X connect 27 0 29 0;
#X connect 27 1 28 0;
#X connect 28 0 27 0;
#X connect 29 0 34 0;
#X connect 29 1 33 0;
#X connect 29 2 30 0;
#X connect 30 0 27 0;
#X connect 31 0 35 0;
#X connect 31 1 23 0;
#X connect 32 0 1 0;
#X connect 33 0 31 1;
#X connect 34 0 31 1;
#X connect 35 0 36 0;
#X connect 35 1 32 0;
#X connect 36 0 27 0;
#X coords 0 -1 1 1 185 60 1 10 10;
#X restore 18 110 pd link-sync;
#N canvas 492 660 628 506 dt-volumes 0;
#X obj 111 -3 ctlin 95 1;
#X obj 200 103 vsl 16 54 0 127 0 0 empty empty empty 0 -9 0 10 -262144
-1 -1 0 1;
#X obj 100 273 ctlout 95 17;
#X obj 216 103 vsl 16 54 0 127 0 0 empty empty empty 0 -9 0 10 -262144
-1 -1 0 1;
#X obj 232 103 vsl 16 54 0 127 0 0 empty empty empty 0 -9 0 10 -262144
-1 -1 0 1;
#X obj 248 103 vsl 16 54 0 127 0 0 empty empty empty 0 -9 0 10 -262144
-1 -1 0 1;
#X obj 282 103 vsl 16 54 0 127 0 0 empty empty empty 0 -9 0 10 -262144
-1 -1 0 1;
#X obj 298 103 vsl 16 54 0 127 0 0 empty empty empty 0 -9 0 10 -262144
-1 -1 0 1;
#X obj 314 103 vsl 16 54 0 127 0 0 empty empty empty 0 -9 0 10 -262144
-1 -1 0 1;
#X obj 330 103 vsl 16 54 0 127 0 0 empty empty empty 0 -9 0 10 -262144
-1 -1 0 1;
#X obj 392 69 ctlin 95 8;
#X obj 387 177 ctlout 95 24;
#X obj 375 48 ctlin 95 7;
#X obj 371 198 ctlout 95 23;
#X obj 356 26 ctlin 95 6;
#X obj 353 221 ctlout 95 22;
#X obj 342 6 ctlin 95 5;
#X obj 337 244 ctlout 95 21;
#X obj 221 64 ctlin 95 4;
#X obj 208 196 ctlout 95 20;
#X obj 190 41 ctlin 95 3;
#X obj 180 223 ctlout 95 19;
#X obj 141 249 ctlout 95 18;
#X obj 149 19 ctlin 95 2;
#X connect 0 0 1 0;
#X connect 1 0 2 0;
#X connect 3 0 22 0;
#X connect 4 0 21 0;
#X connect 5 0 19 0;
#X connect 6 0 17 0;
#X connect 7 0 15 0;
#X connect 8 0 13 0;
#X connect 9 0 11 0;
#X connect 10 0 9 0;
#X connect 12 0 8 0;
#X connect 14 0 7 0;
#X connect 16 0 6 0;
#X connect 18 0 5 0;
#X connect 20 0 4 0;
#X connect 23 0 3 0;
#X coords 0 -1 1 1 185 60 2 200 100;
#X restore 18 199 pd dt-volumes;
#N canvas 790 841 858 474 verb 0;
#X msg 552 126 roomsize \$1;
#X msg 550 206 damping \$1;
#X msg 550 280 width \$1;
#X msg 137 272 print;
#X msg 126 82 freeze \$1;
#X msg 131 120 bypass \$1;
#X obj 131 101 tgl 15 0 empty empty empty 0 -6 0 8 -262144 -1 -1 0
1;
#X obj 126 63 tgl 15 0 empty empty empty 0 -6 0 8 -262144 -1 -1 0 1
;
#X obj 412 51 hsl 60 18 0 1 0 1 ctl_verb-width_range ctl_verb-width_range
width 2 9 1 12 -262131 -1 -1 2950 0;
#X obj 310 51 hsl 60 18 0 2 0 1 ctl_verb-damp_range ctl_verb-damp_range
damping 2 9 1 12 -261689 -1 -1 1180 0;
#X obj 310 34 hsl 60 18 0.11 1.1 0 1 ctl_verb-room_range ctl_verb-room_range
roomsize 2 9 1 12 -261689 -1 -1 2324 0;
#X obj 339 361 freeverb~/freeverb~;
#X obj 133 140 tgl 15 0 empty empty empty 17 7 0 10 -262144 -1 -1 0
1;
#X msg 133 158 firstpassfilter \$1;
#X obj 336 287 inlet~;
#X obj 469 327 inlet~;
#X obj 468 383 outlet~;
#X obj 338 385 outlet~;
#X obj 300 203 r resetbang;
#X msg 300 229 wet 0.707 \, dry 0;
#X obj 508 36 btn verb-sane;
#X msg 508 60 sane;
#X obj 552 102 ctl-range verb-room 0.5 0.11 1.1;
#X obj 550 258 ctl-range verb-width 0.5 0 1;
#X obj 550 183 ctl-range verb-damp 0.4 0 2;
#X obj 469 10 bng 15 250 50 0 empty empty empty 17 7 0 10 -262144 -1
-1;
#X connect 0 0 11 0;
#X connect 1 0 11 0;
#X connect 2 0 11 0;
#X connect 3 0 11 0;
#X connect 4 0 11 0;
#X connect 5 0 11 0;
#X connect 6 0 5 0;
#X connect 7 0 4 0;
#X connect 11 0 17 0;
#X connect 11 1 16 0;
#X connect 12 0 13 0;
#X connect 13 0 11 0;
#X connect 14 0 11 0;
#X connect 15 0 11 1;
#X connect 18 0 19 0;
#X connect 19 0 11 0;
#X connect 20 0 21 0;
#X connect 21 0 22 0;
#X connect 21 0 23 0;
#X connect 21 0 24 0;
#X connect 22 0 0 0;
#X connect 23 0 2 0;
#X connect 24 0 1 0;
#X connect 25 0 21 0;
#X coords 0 -1 1 1 185 60 1 300 10;
#X restore 313 380 pd verb;
#X obj 312 22 adc~;
#N canvas 813 753 623 485 flutter 0;
#X obj 276 210 r link_tempo;
#X obj 374 210 r link_phase;
#X obj 267 310 osc~ 2;
#X obj 276 236 / 60;
#X obj 373 235 - 0.2;
#X obj 260 272 *;
#X obj 217 233 t b f;
#X floatatom 217 307 5 0 0 0 - - -, f 5;
#X obj 322 270 *;
#X obj 224 50 hsl 140 15 0 127 0 0 ctl_flutter ctl_flutter off_|__8_|_16_|_32_|_64_
0 8 0 10 -204786 -1 -1 0 1;
#X obj 194 415 inlet~;
#X obj 273 416 inlet~;
#X obj 274 482 outlet~;
#X obj 195 482 outlet~;
#X obj 203 449 *~;
#X obj 283 447 *~;
#X obj 129 118 * 5;
#X obj 129 140 / 128;
#X obj 129 163 int;
#X obj 501 193 min 1;
#X obj 501 217 change;
#X obj 500 261 line~;
#X obj 266 334 expr~ max(1 - pow(1 - max(0 \, $v1) \, 4) \, 1 - $v2)
, f 22;
#X obj 129 190 expr pow(2 \, $i1+1);
#X obj 500 238 pack 0 100;
#X obj 95 90 ctl flutter 0;
#X msg 409 60 sane;
#X obj 370 10 bng 15 250 50 0 empty empty empty 17 7 0 10 -262144 -1
-1;
#X obj 409 36 btn misc-sane;
#X connect 0 0 3 0;
#X connect 1 0 4 0;
#X connect 2 0 22 0;
#X connect 3 0 5 0;
#X connect 4 0 8 0;
#X connect 5 0 2 0;
#X connect 5 0 7 0;
#X connect 6 0 5 0;
#X connect 6 0 8 0;
#X connect 6 1 5 1;
#X connect 6 1 8 1;
#X connect 8 0 2 1;
#X connect 10 0 14 0;
#X connect 11 0 15 0;
#X connect 14 0 13 0;
#X connect 15 0 12 0;
#X connect 16 0 17 0;
#X connect 17 0 18 0;
#X connect 18 0 19 0;
#X connect 18 0 23 0;
#X connect 19 0 20 0;
#X connect 20 0 24 0;
#X connect 21 0 22 1;
#X connect 22 0 14 1;
#X connect 22 0 15 1;
#X connect 23 0 6 0;
#X connect 24 0 21 0;
#X connect 25 0 16 0;
#X connect 26 0 25 0;
#X connect 27 0 26 0;
#X connect 28 0 26 0;
#X coords 0 -1 1 1 185 60 1 200 10;
#X restore 243 77 pd flutter;
#N canvas 1584 58 629 638 mapping 1;
#X obj 18 20 ctl-map flutter 112 12;
#X obj 24 375 ctl-map verb-room 100 12;
#X obj 25 417 ctl-map verb-damp 101 12;
#X obj 26 457 ctl-map verb-width 102 12;
#X obj 386 23 ctl-map master-vol 23 13;
#X obj 18 59 ctl-map filt-hi-f 113 12;
#X obj 19 98 ctl-map filt-lo-f 114 12;
#X obj 341 120 ctl-map mix_verb 20 13;
#X obj 341 79 ctl-map mix_dry 19 13;
#X obj 79 189 ctl-map belay-feed 117 12;
#X obj 79 227 ctl-map belay-cross 118 12;
#X obj 82 266 ctl-map belay-beats 119 12;
#X obj 341 165 ctl-map mix_belay 21 13;
#X obj 28 563 ctl-map sync-play 98 13;
#X obj 377 552 ctlin, f 12;
#X floatatom 378 581 5 0 0 0 - - -, f 5;
#X floatatom 420 581 5 0 0 0 - - -, f 5;
#X floatatom 461 581 5 0 0 0 - - -, f 5;
#X obj 341 268 ctl-map eq-lo 80 14;
#X obj 341 306 ctl-map eq-mid 81 14;
#X obj 340 344 ctl-map eq-hi 82 14;
#X obj 386 387 ctl-map eq-f1 83 14;
#X obj 385 427 ctl-map eq-f2 84 14;
#X obj 26 499 btn-map verb-sane 20 13;
#X obj 19 137 btn-map misc-sane 22 13;
#X obj 339 467 btn-map eq-sane 18 13;
#X obj 83 307 btn-map belay-sane 21 13;
#X connect 14 0 15 0;
#X connect 14 1 16 0;
#X connect 14 2 17 0;
#X restore 25 589 pd mapping;
#N canvas 518 778 532 466 output 0;
#X obj 132 37 hsl 42 23 0.01 1 1 0 \$0-v \$0-v volume 7 13 1 9 -245500
-13381 -1 2667 0;
#X obj 176 37 tgl 18 0 THIS_IS_HERE_TO_GET_RID_OF_THE_OUTLET \$0-dsp-toggle
dsp 2 9 1 9 -225271 -195568 -33289 1 1;
#N canvas 1019 468 429 371 dsp 0;
#X obj 36 30 inlet;
#X obj 117 227 select 0 1;
#X msg 150 252 6;
#X obj 117 86 route dsp;
#X obj 117 59 receive pd;
#X msg 36 228 dsp \$1;
#X obj 36 253 send pd;
#X msg 231 279 set \$1;
#X msg 117 279 color \$1 20 12;
#X obj 231 310 send \$0-dsp-toggle;
#X msg 117 251 0;
#X obj 251 129 loadbang;
#X obj 231 99 sig~ 1;
#X obj 231 191 snapshot~;
#X obj 251 158 delay 100;
#X obj 117 138 change -1;
#X obj 2 2 cnv 15 425 20 empty empty empty 3 12 0 14 -204280 -1 0;
#X text 6 3 Retrieve and set DSP state;
#X connect 0 0 5 0;
#X connect 0 0 15 0;
#X connect 1 0 10 0;
#X connect 1 1 2 0;
#X connect 2 0 8 0;
#X connect 3 0 15 0;
#X connect 4 0 3 0;
#X connect 5 0 6 0;
#X connect 7 0 9 0;
#X connect 8 0 9 0;
#X connect 10 0 8 0;
#X connect 11 0 14 0;
#X connect 12 0 13 0;
#X connect 13 0 1 0;
#X connect 13 0 7 0;
#X connect 14 0 13 0;
#X connect 15 0 7 0;
#X connect 15 0 1 0;
#X restore 148 76 pd dsp logic;
#X obj 253 44 inlet~;
#X obj 74 268 line~;
#X obj 174 328 *~;
#X obj 194 358 dac~;
#X text 382 46 audio in;
#X obj 315 44 inlet~;
#X obj 236 327 *~;
#X obj 253 115 hip~ 3;
#X obj 315 115 hip~ 3;
#X obj 10 283 send pd;
#X msg 10 262 dsp 1;
#X obj 74 247 pack 0 50;
#X text 141 246 <-- make a ramp to avoid clicks or zipper noise;
#X msg 74 212 0;
#X obj 74 189 moses 0.011;
#X text 359 116 filter out DC;
#X obj 4 3 cnv 15 425 20 empty empty empty 3 12 0 14 -204280 -1 0;
#X text 10 3 dac~ and DSP switch abstraction;
#X text 14 376 Created by Katja Vetter after an idea by Claude Heiland-Allen
- Modified by mzero@ for use in ek.pd;
#X obj 271 67 catch~ bus_master_l;
#X obj 346 91 catch~ bus_master_r;
#X obj 14 110 ctl-range master-vol 0.2 0 1;
#X connect 0 0 24 0;
#X connect 1 0 2 0;
#X connect 3 0 10 0;
#X connect 4 0 9 0;
#X connect 4 0 5 0;
#X connect 5 0 6 0;
#X connect 8 0 11 0;
#X connect 9 0 6 1;
#X connect 10 0 5 1;
#X connect 11 0 9 1;
#X connect 13 0 12 0;
#X connect 14 0 4 0;
#X connect 16 0 14 0;
#X connect 17 0 16 0;
#X connect 17 1 14 0;
#X connect 22 0 10 0;
#X connect 23 0 11 0;
#X connect 24 0 13 0;
#X connect 24 0 17 0;
#X connect 24 1 0 0;
#X coords 0 -1 1 1 185 30 1 10 30;
#X restore 532 422 pd output;
#N canvas 707 768 695 463 filter-all 0;
#X obj 43 203 inlet~;
#X obj 42 357 outlet~;
#X obj 120 203 inlet~;
#X obj 119 357 outlet~;
#X obj 219 134 mtof;
#X obj 219 159 * 2;
#X obj 297 176 mtof;
#X obj 297 201 * 2;
#X obj 297 148 ctl filt-lo-f 127;
#X obj 43 235 hip~;
#X obj 42 325 lop~;
#X obj 120 235 hip~;
#X obj 119 325 lop~;
#X obj 219 106 ctl filt-hi-f 0;
#X obj 19 51 hsl 70 15 0 127 0 0 ctl_filt-hi-f ctl_filt-hi-f hi_pass
0 8 0 10 -204800 -1 -1 0 1;
#X obj 110 50 hsl 70 15 0 127 0 0 ctl_filt-lo-f ctl_filt-lo-f lo_pass
0 8 0 10 -204800 -1 -1 6900 1;
#X obj 43 264 hip~;
#X obj 41 293 lop~;
#X obj 120 264 hip~;
#X obj 118 293 lop~;
#X msg 220 60 sane;
#X obj 180 10 bng 15 250 50 0 empty empty empty 17 7 0 10 -262144 -1
-1;
#X obj 220 36 btn misc-sane;
#X connect 0 0 9 0;
#X connect 2 0 11 0;
#X connect 4 0 5 0;
#X connect 5 0 9 1;
#X connect 5 0 11 1;
#X connect 5 0 18 1;
#X connect 5 0 16 1;
#X connect 6 0 7 0;
#X connect 7 0 10 1;
#X connect 7 0 12 1;
#X connect 7 0 19 1;
#X connect 7 0 17 1;
#X connect 8 0 6 0;
#X connect 9 0 16 0;
#X connect 10 0 1 0;
#X connect 11 0 18 0;
#X connect 12 0 3 0;
#X connect 13 0 4 0;
#X connect 16 0 17 0;
#X connect 17 0 10 0;
#X connect 18 0 19 0;
#X connect 19 0 12 0;
#X connect 20 0 13 0;
#X connect 20 0 8 0;
#X connect 21 0 20 0;
#X connect 22 0 20 0;
#X coords 0 -1 1 1 185 60 1 10 10;
#X restore 242 222 pd filter-all;
#X obj 242 293 chan-mix dry;
#X obj 313 453 chan-mix verb;
#X obj 533 201 chan dry;
#X obj 612 200 chan verb;
#X obj 562 25 r resetbang;
#X msg 562 49 inv 1;
#N canvas 817 624 1160 793 belay 0;
#X obj 627 53 inlet~;
#X obj 808 54 inlet~;
#X obj 731 94 *~ 0.5;
#X obj 628 672 delwrite~ belay-left 8000;
#X obj 731 649 delwrite~ belay-center 8000;
#X obj 811 626 delwrite~ belay-right 8000;
#X obj 73 93 r link_tempo;
#X obj 73 118 t b f, f 12;
#X msg 73 147 15000;
#X obj 73 173 /, f 12;
#X floatatom 72 213 5 0 0 0 - - -, f 5;
#X obj 208 318 delread4~ belay-left;
#X obj 308 341 delread4~ belay-center;
#X obj 388 364 delread4~ belay-right;
#X obj 215 521 outlet~;
#X obj 393 522 outlet~;
#X obj 130 205 pack 0 10;
#X obj 130 229 line~;
#X obj 303 274 *~;
#X obj 18 33 hsl 60 18 0 1 0 1 ctl_belay-feed_range ctl_belay-feed_range
feedback 2 9 1 12 -261234 -1 -1 885 0;
#X obj 18 52 hsl 60 18 0 1 0 1 ctl_belay-cross_range ctl_belay-cross_range
cross 2 9 1 12 -261234 -1 -1 1180 0;
#X obj 122 35 hsl 60 18 1 16 0 1 ctl_belay-beats_range ctl_belay-beats_range
beats 2 9 1 12 -204800 -1 -1 1967 0;
#X obj 82 332 pack 0 10;
#X obj 83 354 line~;
#X obj 393 473 *~ 1;
#X obj 215 472 *~ 1;
#X obj 198 438 *~;
#X obj 417 441 *~;
#X obj 66 392 -~;
#X obj 22 355 sig~ 1;
#X obj 244 440 *~;
#X obj 345 442 *~;
#X obj 599 505 *~;
#X obj 702 507 *~;
#X obj 786 506 *~;
#X obj 549 251 pack 0 100;
#X obj 551 277 line~;
#X obj 208 274 *~ 3;
#X obj 388 276 *~ 5;
#X obj 303 216 line~;
#X obj 303 192 pack 0 50;
#X floatatom 133 55 5 0 0 0 - - -, f 5;
#X obj 303 168 int;
#X obj 319 57 ctl-range belay-beats 6 1 16;
#X obj 229 10 btn belay-sane;
#X msg 229 32 sane;
#X obj 180 10 bng 15 250 50 0 empty empty empty 17 7 0 10 -262144 -1
-1;
#X obj 281 86 ctl-range belay-feed 0.15 0 1;
#X obj 233 121 ctl-range belay-cross 0.2 0 1;
#X connect 0 0 2 0;
#X connect 0 0 3 0;
#X connect 1 0 2 0;
#X connect 1 0 5 0;
#X connect 2 0 4 0;
#X connect 6 0 7 0;
#X connect 7 0 8 0;
#X connect 7 1 9 1;
#X connect 8 0 9 0;
#X connect 9 0 10 0;
#X connect 9 0 16 0;
#X connect 11 0 26 1;
#X connect 11 0 32 1;
#X connect 12 0 30 1;
#X connect 12 0 31 1;
#X connect 12 0 33 1;
#X connect 13 0 27 1;
#X connect 13 0 34 1;
#X connect 16 0 17 0;
#X connect 17 0 18 0;
#X connect 17 0 37 0;
#X connect 17 0 38 0;
#X connect 18 0 12 0;
#X connect 22 0 23 0;
#X connect 23 0 28 1;
#X connect 23 0 30 0;
#X connect 23 0 31 0;
#X connect 24 0 15 0;
#X connect 25 0 14 0;
#X connect 26 0 25 0;
#X connect 27 0 24 0;
#X connect 28 0 26 0;
#X connect 28 0 27 0;
#X connect 29 0 28 0;
#X connect 30 0 25 0;
#X connect 31 0 24 0;
#X connect 32 0 3 0;
#X connect 33 0 4 0;
#X connect 34 0 5 0;
#X connect 35 0 36 0;
#X connect 36 0 32 0;
#X connect 36 0 33 0;
#X connect 36 0 34 0;
#X connect 37 0 11 0;
#X connect 38 0 13 0;
#X connect 39 0 18 1;
#X connect 40 0 39 0;
#X connect 42 0 40 0;
#X connect 42 0 41 0;
#X connect 43 0 42 0;
#X connect 44 0 45 0;
#X connect 45 0 47 0;
#X connect 45 0 48 0;
#X connect 46 0 45 0;
#X connect 47 0 35 0;
#X connect 48 0 22 0;
#X coords 0 -1 1 1 185 60 1 10 10;
#X restore 105 380 pd belay;
#X obj 693 200 chan belay;
#X obj 105 451 chan-mix belay;
#N canvas 1007 790 1025 512 eq 0;
#X obj 287 380 inlet~;
#X obj 287 472 outlet~;
#X obj 287 437 biquad~;
#X obj 352 379 inlet~;
#X obj 352 471 outlet~;
#X obj 352 436 biquad~;
#X floatatom 371 27 6 0 0 1 - - -, f 6;
#X obj 303 27 hsl 60 17 0 127 0 1 ctl_eq-f1 ctl_eq-f1 lo/mid_f 5 9
0 10 -203904 -1 -1 2323 0;
#X obj 423 53 hsl 60 17 -12 12 0 1 ctl_eq-hi_range ctl_eq-hi_range
hi 5 9 0 10 -204786 -1 -1 2950 0;
#X obj 333 338 hlshelf 30 50 70 500 5000;
#X obj 423 36 hsl 60 17 -12 12 0 1 ctl_eq-mid_range ctl_eq-mid_range
mid 5 9 0 10 -204786 -1 -1 2950 0;
#X obj 423 19 hsl 60 17 -12 12 0 1 ctl_eq-lo_range ctl_eq-lo_range
lo 5 9 0 10 -204786 -1 -1 2950 0;
#X obj 374 182 ctl-range eq-lo 0 -12 12;
#X obj 406 212 ctl-range eq-mid 0 -12 12;
#X obj 459 241 ctl-range eq-hi 0 -12 12;
#X obj 406 239 t b f;
#X obj 463 269 t b f;
#X obj 138 174 mtof;
#X obj 137 200 t b f;
#X obj 253 173 mtof;
#X obj 252 199 t b f;
#X floatatom 371 44 6 0 0 1 - - -, f 6;
#X obj 303 44 hsl 60 17 0 127 0 1 ctl_eq-f2 ctl_eq-f2 mid/hi_f 5 9
0 10 -203904 -1 -1 4646 0;
#X obj 403 11 bng 15 250 50 0 empty empty empty 17 7 0 10 -262144 -1
-1;
#X obj 138 148 ctl eq-f1 50;
#X obj 253 147 ctl eq-f2 100;
#X msg 404 93 sane;
#X obj 512 55 btn eq-sane;
#X connect 0 0 2 0;
#X connect 2 0 1 0;
#X connect 3 0 5 0;
#X connect 5 0 4 0;
#X connect 9 0 2 0;
#X connect 9 0 5 0;
#X connect 12 0 9 0;
#X connect 13 0 15 0;
#X connect 14 0 16 0;
#X connect 15 0 9 0;
#X connect 15 1 9 1;
#X connect 16 0 9 0;
#X connect 16 1 9 2;
#X connect 17 0 6 0;
#X connect 17 0 18 0;
#X connect 18 0 9 0;
#X connect 18 1 9 3;
#X connect 19 0 20 0;
#X connect 19 0 21 0;
#X connect 20 0 9 0;
#X connect 20 1 9 4;
#X connect 23 0 26 0;
#X connect 24 0 17 0;
#X connect 25 0 19 0;
#X connect 26 0 12 0;
#X connect 26 0 13 0;
#X connect 26 0 14 0;
#X connect 26 0 25 0;
#X connect 26 0 24 0;
#X connect 27 0 26 0;
#X coords 0 -1 1 1 185 60 1 300 10;
#X restore 242 150 pd eq;
#X connect 3 0 10 0;
#X connect 3 1 10 1;
#X connect 4 0 5 0;
#X connect 4 1 5 1;
#X connect 5 0 18 0;
#X connect 5 1 18 1;
#X connect 8 0 9 0;
#X connect 8 1 9 1;
#X connect 9 0 3 0;
#X connect 9 0 15 0;
#X connect 9 1 3 1;
#X connect 9 1 15 1;
#X connect 13 0 14 0;
#X connect 14 0 11 1;
#X connect 15 0 17 0;
#X connect 15 1 17 1;
#X connect 18 0 8 0;
#X connect 18 1 8 1;
