#N canvas 1112 873 959 480 10;
#X obj 16 31 cnv 15 200 100 empty empty empty 20 12 0 14 -163379 -66577
0;
#N canvas 0 22 450 300 (subpatch) 0;
#X array \$0-scope 4709 float 0;
#X coords 0 1.1 4708 -1.1 200 100 1 0 0;
#X restore 16 32 graph;
#X obj 73 240 metro 100;
#X obj 164 17 hsl 50 15 100 44100 1 1 empty empty zoom -34 8 0 10 -262144
-1 -1 2200 0;
#X obj 212 158 r \$0-zoom;
#X msg 212 181 resize \$1;
#X obj 212 206 s \$0-scope;
#X obj 110 17 tgl 15 1 empty empty view -30 7 0 10 -262144 -1 -1 0
1;
#X obj 40 291 tabwrite~ \$0-scope;
#X obj 151 181 + 5;
#X obj 154 205 int;
#X obj 153 158 / 10;
#X obj 22 171 inlet~;
#X connect 2 0 8 0;
#X connect 3 0 11 0;
#X connect 4 0 5 0;
#X connect 5 0 6 0;
#X connect 7 0 2 0;
#X connect 9 0 10 0;
#X connect 10 0 2 1;
#X connect 11 0 9 0;
#X connect 12 0 8 0;
#X coords 0 -1 1 1 200 116 2 16 16;
