#N canvas 1044 335 536 377 10;
#X obj 336 132 metro 1 1 sec;
#X obj 331 244 int;
#X msg 269 204 0;
#X obj 100 152 bng 15 250 50 0 empty empty empty 17 7 0 10 -262144
-1 -1;
#X obj 367 244 + 1;
#X floatatom 101 170 3 0 0 0 - - -, f 3;
#X floatatom 127 170 3 0 0 0 - - -, f 3;
#X obj 330 268 expr $i1/60 \; $i1 - $i1/60*60;
#X obj 326 100 tgl 15 0 empty empty empty 17 7 0 10 -262144 -1 -1 1
1;
#X obj 291 128 == 0;
#X obj 268 156 spigot;
#X obj 127 152 tgl 15 0 empty empty empty 17 7 0 10 -262144 -1 -1 1
1;
#X obj 140 13 inlet;
#X obj 326 319 outlet;
#X obj 429 321 outlet;
#X msg 286 70 1;
#X msg 329 69 0;
#X obj 140 36 route set reset resetif start stop toggle;
#X connect 0 0 1 0;
#X connect 1 0 4 0;
#X connect 1 0 7 0;
#X connect 2 0 1 0;
#X connect 3 0 2 0;
#X connect 4 0 1 1;
#X connect 7 0 5 0;
#X connect 7 0 13 0;
#X connect 7 1 6 0;
#X connect 7 1 14 0;
#X connect 8 0 0 0;
#X connect 8 0 9 0;
#X connect 8 0 11 0;
#X connect 9 0 10 1;
#X connect 10 0 2 0;
#X connect 12 0 17 0;
#X connect 15 0 8 0;
#X connect 16 0 8 0;
#X connect 17 0 1 0;
#X connect 17 1 2 0;
#X connect 17 2 10 0;
#X connect 17 3 15 0;
#X connect 17 4 16 0;
#X connect 17 5 8 0;
#X coords 0 -1 1 1 60 40 2 100 150;
